<svg width="263" height="54" viewBox="0 0 263 54" fill="none" xmlns="http://www.w3.org/2000/svg">
<path d="M75.5827 42L64.6227 13.36H67.7027L75.3427 33.28C75.9427 34.84 76.5027 36.4 77.1427 38.4C77.7427 36.32 78.4627 34.32 78.9027 33.24L86.5027 13.36H89.4627L78.5827 42H75.5827ZM94.0877 17.32C92.9677 17.32 92.0477 16.4 92.0477 15.28C92.0477 14.16 92.9677 13.2 94.0877 13.2C95.2077 13.2 96.1677 14.16 96.1677 15.28C96.1677 16.4 95.2077 17.32 94.0877 17.32ZM92.7277 42V22.64H95.4877V42H92.7277ZM103.643 42H101.243V12.84H104.003V26.4C105.363 23.56 108.003 22.12 111.283 22.12C116.923 22.12 120.203 26.52 120.203 32.36C120.203 38.16 116.843 42.48 111.203 42.48C107.963 42.48 105.283 41.04 103.923 38.04L103.643 42ZM104.043 32.28C104.043 36.76 106.523 39.96 110.763 39.96C114.963 39.96 117.403 36.76 117.403 32.28C117.403 27.84 114.963 24.6 110.763 24.6C106.523 24.6 104.043 27.84 104.043 32.28ZM132.723 42.48C127.043 42.48 123.243 38.4 123.243 32.32C123.243 26.28 127.003 22.12 132.523 22.12C137.763 22.12 141.323 25.84 141.323 31.32V32.68H125.923C126.123 37.4 128.603 40.12 132.763 40.12C135.923 40.12 137.963 38.76 138.683 36.2H141.323C140.283 40.28 137.283 42.48 132.723 42.48ZM132.523 24.48C128.883 24.48 126.483 26.88 126.003 30.68H138.563C138.563 26.96 136.163 24.48 132.523 24.48ZM144.615 20.8C144.615 16 148.455 12.84 154.215 12.84C159.375 12.84 162.775 15.72 163.215 20.52H160.295C159.975 17.28 157.775 15.44 154.175 15.44C150.135 15.44 147.495 17.52 147.495 20.76C147.495 23.28 148.975 24.88 151.975 25.64L156.895 26.84C161.375 27.92 163.695 30.48 163.695 34.36C163.695 39.32 159.855 42.48 153.935 42.48C148.375 42.48 144.615 39.56 144.255 34.88H147.215C147.375 37.88 150.015 39.84 153.935 39.84C158.135 39.84 160.815 37.8 160.815 34.52C160.815 31.96 159.375 30.28 156.295 29.56L151.455 28.36C146.975 27.28 144.615 24.72 144.615 20.8ZM172.715 42H169.995V24.96H166.115V22.64H169.995V16.52H172.715V22.64H176.595V24.96H172.715V42ZM190.309 22.4V24.88H188.789C185.229 24.88 182.949 27.28 182.949 30.96V42H180.189V22.64H182.789L182.989 25.64C183.749 23.56 185.789 22.2 188.509 22.2C189.109 22.2 189.629 22.24 190.309 22.4ZM195.338 17.32C194.218 17.32 193.298 16.4 193.298 15.28C193.298 14.16 194.218 13.2 195.338 13.2C196.458 13.2 197.418 14.16 197.418 15.28C197.418 16.4 196.458 17.32 195.338 17.32ZM193.978 42V22.64H196.738V42H193.978ZM205.253 42H202.493V22.64H204.893L205.293 26C206.573 23.52 209.133 22.12 211.933 22.12C217.253 22.12 219.453 25.28 219.453 30.16V42H216.693V30.76C216.693 26.24 214.653 24.64 211.453 24.64C207.493 24.64 205.253 27.52 205.253 31.88V42ZM223.634 31.76C223.634 26.48 227.034 22.12 232.714 22.12C236.074 22.12 238.634 23.68 239.874 26.52L240.154 22.64H242.554V41.4C242.554 47.16 238.874 50.92 233.194 50.92C228.234 50.92 224.754 48.12 223.994 43.44H226.754C227.354 46.56 229.754 48.4 233.234 48.4C237.194 48.4 239.834 45.72 239.834 41.68V37.08C238.514 39.8 235.834 41.4 232.514 41.4C226.994 41.4 223.634 37.04 223.634 31.76ZM226.394 31.72C226.394 35.68 228.834 38.92 232.914 38.92C237.114 38.92 239.594 35.88 239.594 31.72C239.594 27.6 237.194 24.56 232.954 24.56C228.794 24.56 226.394 27.8 226.394 31.72ZM246.674 36.56H249.314C249.314 38.8 250.994 40.2 253.714 40.2C256.714 40.2 258.474 38.92 258.474 36.84C258.474 35.24 257.674 34.32 255.394 33.76L252.074 32.92C248.714 32.08 247.074 30.32 247.074 27.68C247.074 24.28 249.914 22.12 254.074 22.12C258.154 22.12 260.794 24.36 260.914 27.96H258.234C258.154 25.72 256.594 24.4 253.994 24.4C251.274 24.4 249.754 25.56 249.754 27.64C249.754 29.12 250.794 30.16 252.914 30.68L256.234 31.52C259.594 32.36 261.114 33.92 261.114 36.72C261.114 40.2 258.154 42.48 253.754 42.48C249.394 42.48 246.674 40.16 246.674 36.56Z" fill="#121212"/>
<path fill-rule="evenodd" clip-rule="evenodd" d="M20.2139 25.0374C19.6652 35.5241 10.8456 43.878 0 44V4C10.8456 4.12209 19.6652 12.4759 20.2139 22.9626C20.7553 12.6141 29.3512 4.34272 40 4.00915V43.991C29.3512 43.6574 20.7553 35.386 20.2139 25.0374Z" fill="#FF6428"/>
</svg>
